<?xml version="1.0" standalone="no"?>
<!DOCTYPE svg PUBLIC "-//W3C//DTD SVG 20010904//EN"
 "http://www.w3.org/TR/2001/REC-SVG-20010904/DTD/svg10.dtd">
<svg version="1.0" xmlns="http://www.w3.org/2000/svg"
 width="256.000000pt" height="256.000000pt" viewBox="0 0 256.000000 256.000000"
 preserveAspectRatio="xMidYMid meet">
<metadata>
Created by potrace 1.14, written by Peter Selinger 2001-2017
</metadata>
<g transform="translate(0.000000,256.000000) scale(0.100000,-0.100000)"
fill="#000000" stroke="none">
<path d="M1105 2549 c-259 -33 -547 -178 -735 -368 -100 -101 -164 -194 -235
-336 -179 -359 -181 -762 -6 -1120 134 -273 323 -462 596 -596 353 -172 757
-172 1110 0 273 134 462 323 596 596 172 353 172 757 0 1110 -134 273 -323
462 -596 596 -225 110 -474 150 -730 118z m283 -424 c254 -65 439 -170 604
-344 146 -153 217 -330 190 -474 -43 -229 -230 -362 -528 -374 -150 -7 -254 7
-398 54 -318 102 -565 304 -670 548 -28 64 -31 80 -31 180 0 98 3 116 26 166
65 137 198 228 387 264 113 21 289 13 420 -20z m-715 -843 l34 -44 -30 -56
c-25 -46 -32 -71 -35 -137 -4 -72 -1 -87 21 -132 46 -90 148 -162 284 -199 32
-9 114 -18 183 -21 148 -6 248 9 426 63 249 75 407 157 526 275 37 36 68 65
68 63 0 -1 -14 -42 -31 -91 -63 -181 -153 -329 -251 -418 -104 -93 -267 -173
-446 -217 -128 -32 -355 -32 -467 0 -207 60 -315 171 -389 402 -62 192 -67
277 -25 406 22 67 74 157 89 152 4 -2 24 -23 43 -46z"/>
<path d="M1220 1853 c0 -31 -45 -80 -80 -88 -34 -7 -36 -12 -17 -34 7 -9 18
-28 25 -43 14 -33 12 -34 -73 -13 -93 22 -94 19 -12 -42 53 -39 73 -60 67 -68
-7 -8 12 -17 68 -29 42 -10 81 -21 86 -23 4 -3 -25 -39 -65 -80 l-74 -74 35
-30 c19 -16 37 -29 41 -29 4 0 36 40 71 90 35 49 66 90 70 90 3 0 40 -20 81
-44 50 -30 82 -42 98 -39 13 2 62 -2 109 -10 47 -8 87 -13 89 -11 2 2 -26 22
-63 46 l-66 42 47 13 c27 6 52 12 56 13 5 0 6 13 2 28 -4 21 1 38 19 64 28 41
26 42 -50 53 -27 4 -54 11 -59 16 -6 4 -27 9 -48 11 l-38 3 24 35 24 35 -28
12 c-20 8 -29 19 -29 35 0 45 -13 52 -57 29 -35 -17 -43 -18 -60 -6 -19 13
-21 11 -37 -27 l-16 -42 -23 22 c-13 12 -28 22 -35 22 -6 0 -23 17 -38 38 -42
56 -44 58 -44 35z"/>
</g>
</svg>
