<?xml version="1.0" encoding="utf-8"?>
<!-- Generator: Adobe Illustrator 27.8.0, SVG Export Plug-In . SVG Version: 6.00 Build 0)  -->
<svg version="1.1" id="Layer_1" xmlns="http://www.w3.org/2000/svg" xmlns:xlink="http://www.w3.org/1999/xlink" x="0px" y="0px"
	 viewBox="0 0 256 256" style="enable-background:new 0 0 256 256;" xml:space="preserve">
<style type="text/css">
	.st0{fill:#CC0000;}
	.st1{fill:#FFFFFF;}
</style>
<circle class="st0" cx="128" cy="128" r="127.95"/>
<path class="st1" d="M215.55,134.48c-5.15,12.4-16.19,21.29-31.92,25.7c-2.46,0.69-5.04,1.27-7.69,1.72
	c-4.85,0.83-9.91,1.24-15.1,1.24c-14.68,0-30.43-3.27-45.65-9.6c-20.61-8.56-37.93-21.75-48.79-37.15
	c-11.45-16.24-14.48-33.07-8.52-47.41c5.95-14.34,20.02-24.07,39.6-27.41c18.57-3.17,40.15-0.2,60.75,8.36
	c20.6,8.56,37.93,21.75,48.79,37.15C218.48,103.31,221.51,120.14,215.55,134.48z M212.05,149.57c-15,16.15-31.75,24.09-64.12,33.41
	c-24.67,7.11-50.49,5.67-67.38-3.74c-8.52-4.75-14.14-11.25-16.26-18.8c-2.39-8.52-0.42-17.96,5.69-27.3l0.65-1l-0.79-0.89
	c-2.09-2.37-4.02-4.78-5.72-7.17l-1.26-1.77l-1.28,1.77c-8.8,12.18-11.92,25.85-9.02,39.55c6.54,30.92,17.18,46.41,36.75,53.49
	c8.7,3.15,18.31,4.73,28.46,4.73c7.27,0,14.82-0.81,22.5-2.45c17-3.61,32.94-10.94,44.88-20.62c12.83-10.4,21.7-29.08,25.69-40.41
	c1.95-5.55,4.39-13.04,4.39-13.04S212.95,148.6,212.05,149.57z M153.72,115.71c2.74,0.24,18.27,3.27,21.7,3.28
	c-3.72-3.22-9.75-6.65-14.14-9.53c2.46,0.03,8.73-1.94,12.12-3.03c-5.49-4.3,1.08-9.85,3.47-12.41c-8.06-1.85-13.12-2.5-14.31-2.61
	c-0.49-0.87-0.44-0.74-0.62-1.4c-1.42,0.14-4.21,0.2-7.5-0.42c0.1-0.49,4.26-6.55,5.2-7.72c-1.88-0.28-4.12-0.55-5.79-0.89
	c0,0-1.03-5.42-1.83-8.36c-1.63,0.63-6.42,3.1-8.68,4.04c-1.1-0.83-1.89-1.42-4.34-3.05c-0.29,1.18-1.6,5.52-3.46,8.23l-3.92-3.9
	c0,0-1.55,0.05-2.12-0.42c-4.2-3.5-6.08-8.16-7.29-9.12c0,0,0.2,12.43-12.9,11.22c4.12,3.43,4.93,7.16,6.32,10.26
	c-2.23-0.17-11.96-2.34-19.04-3.98c2.62,1.48,15.28,11.7,17.63,12.73c-0.94,0.81-1.68,0.81-3.28,1.7c0,0,14.99,3.81,18.12,4.63
	c-2.14,3.09-12.43,12.44-14.77,15.22c1.2,0.73,6.27,5.7,8.06,6.86c0,0,12.25-17.36,13.83-19.03c1.33,0.48,14.43,8.6,16.69,9.51
	C152.8,116.64,153.56,117.42,153.72,115.71z"/>
</svg>
